<svg width="38" height="21" viewBox="0 0 38 21" fill="none" xmlns="http://www.w3.org/2000/svg">
<path d="M37.604 3.56388H34.492L33.984 3.32018H26.012L25.956 3.23895H25.332L25.276 3.32018H23.524C23.524 3.32018 23.524 3.07649 23.468 2.98945H23.016C23.016 2.98945 22.96 2.17133 22.056 1.84061H21.32C21.32 1.84061 21.264 1.42865 20.924 1.26618H18.888V2.57749H18.66C18.66 2.57749 18.604 1.18495 18.492 1.18495H16.852C16.852 1.18495 16.964 0.117335 16.344 0.0361029C15.72 -0.0451287 10.86 0.0361029 10.86 0.0361029L10.408 0.279799H8.032L7.58 0.0361029C7.58 0.0361029 4.244 0.0361041 3.452 0.279799C2.912 0.448065 1.052 0.767189 0.464 0.952861C0.192 1.03989 0 1.38803 0 1.78839V19.8856C0 19.8856 0.508 20.2164 0.96 20.1293C1.412 20.0481 2.712 19.8856 2.712 19.8856H10.008C10.008 19.8856 10.292 19.8856 10.348 19.23C10.404 18.5743 9.784 13.8165 9.784 12.9984C9.784 12.1802 10.012 10.9502 10.464 10.7819C10.916 10.6194 13.236 10.7819 13.236 10.7819C13.236 10.7819 16.232 9.87674 16.856 7.25412V5.9428H18.496C18.496 5.9428 18.664 5.44961 18.664 4.63149H18.892V5.86157H20.928C20.928 5.86157 21.268 5.69911 21.268 5.36838C21.268 5.36838 21.948 5.36838 22.004 5.36838C22.06 5.36838 22.852 5.03765 23.02 4.21953H23.416C23.416 4.21953 23.528 4.05707 23.528 3.8888H25.28L25.336 3.97004H25.96L26.016 3.8888H33.988L34.496 3.80757H38L37.604 3.56388ZM4.156 13.2014C3.08 17.8781 2.856 18.203 2.856 18.203H1.836C1.836 18.203 2.628 9.75489 2.628 7.04523C2.628 4.33558 2.516 2.8618 2.516 2.8618C2.516 2.8618 3.42 2.20615 4.156 2.8618C4.156 2.86761 5.232 8.52481 4.156 13.2014Z" fill="white"/>
</svg>
