<svg width="23" height="26" viewBox="0 0 23 26" fill="none" xmlns="http://www.w3.org/2000/svg">
<path d="M19.5872 7.24682H4.40212C3.71062 7.24682 3.15743 6.69363 3.15743 6.00214V1.24468C3.15743 0.553192 3.71062 0 4.40212 0H19.5596C20.2511 0 20.8043 0.553192 20.8043 1.24468V6.00214C20.8319 6.69363 20.2787 7.24682 19.5872 7.24682Z" fill="white"/>
<path d="M12.6999 16.3744H12.3403C11.5105 16.3744 10.8467 17.0382 10.8467 17.868V25.2531C10.8467 25.668 11.1786 25.9999 11.5935 25.9999H13.4467C13.8616 25.9999 14.1935 25.668 14.1935 25.2531V17.868C14.1935 17.0382 13.5297 16.3744 12.6999 16.3744Z" fill="white"/>
<path d="M3.15745 3.62341H2.21702C1.55319 3.62341 1 4.17661 1 4.84044V8.15959C1 8.79576 1.52553 9.3213 2.1617 9.3213H10.8745C11.7872 9.3213 12.5064 10.0681 12.5064 10.9532V16.3745" stroke="white" stroke-miterlimit="10"/>
<path d="M21.7447 4.23197H20.3893V3.0426H21.7447C21.883 3.0426 22.0212 3.15324 22.0212 3.3192V3.95537C22.0212 4.09367 21.883 4.23197 21.7447 4.23197Z" fill="white"/>
</svg>
