<svg width="26" height="27" viewBox="0 0 26 27" fill="none" xmlns="http://www.w3.org/2000/svg">
<path d="M8.21372 13.2457C8.1848 12.5805 8.96566 12.2624 9.39947 12.6962L13.1303 16.3981C13.4773 16.7451 13.4773 17.2946 13.1303 17.6127C12.87 17.873 12.5808 17.8152 11.9734 17.7863C11.9734 17.7863 10.9612 17.6706 10.6431 18.1044C10.4117 18.4804 9.54408 21.0543 8.82106 21.893C8.09804 22.7317 5.06136 25.6238 1.64871 26.0287L0.000224321 24.3802C0.000224321 24.3802 -0.0865381 21.7195 3.15259 18.0755C3.61532 17.5549 4.19374 17.1211 4.80107 16.803C5.37949 16.5137 6.13143 16.1667 6.85445 15.9643C7.98236 15.6461 8.12696 15.0099 8.12696 14.6917C8.15588 13.9109 8.1848 13.3903 8.1848 13.0722L8.21372 13.2457Z" fill="white"/>
<path d="M11.9445 12.6095L13.3038 13.9687L22.9055 4.42488L24.1491 3.96214C24.4383 3.84646 24.6986 3.61509 24.8432 3.32589L26 1.04115L24.7275 0L22.5295 1.21467C22.2403 1.35928 22.0379 1.61956 21.9222 1.90877L21.5173 3.00776L11.9445 12.6095Z" fill="white"/>
</svg>
