<svg width="26" height="27" viewBox="0 0 26 27" fill="none" xmlns="http://www.w3.org/2000/svg">
<path d="M25.9979 21.7644H0V26.0522H25.9979V21.7644Z" fill="white"/>
<path d="M19.0507 9.52533C19.0507 4.26062 14.79 0 9.52533 0C4.26062 0 0 4.26062 0 9.52533C0 14.79 4.26062 19.0507 9.52533 19.0507H25.9979V16.1469L9.60675 16.2283C5.94316 16.2555 2.98515 13.2975 2.98515 9.63388C2.98515 5.97029 5.94316 3.03942 9.60675 3.03942C13.2703 3.03942 16.2012 5.99743 16.2012 9.63388L19.0507 9.52533Z" fill="white"/>
<path d="M9.57961 6.13318C7.67997 6.13318 6.13312 7.68003 6.13312 9.57967C6.13312 11.4793 7.67997 13.0262 9.57961 13.0262C11.4792 13.0262 13.0261 11.4793 13.0261 9.57967C13.0261 7.68003 11.4792 6.13318 9.57961 6.13318ZM9.57961 10.1496C9.28109 10.1496 9.06399 9.90532 9.06399 9.63394C9.06399 9.33543 9.30823 9.11833 9.57961 9.11833C9.85098 9.11833 10.0952 9.36256 10.0952 9.63394C10.0952 9.90532 9.87812 10.1496 9.57961 10.1496Z" fill="white"/>
</svg>
