<svg width="38" height="20" viewBox="0 0 38 20" fill="none" xmlns="http://www.w3.org/2000/svg">
<path d="M12.312 3.91405L16.188 6.08005L19.912 3.91405L16.112 1.74805L12.312 3.91405Z" fill="white"/>
<path d="M7.48597 11.1721L11.704 8.70205L7.75197 6.49805L3.49597 8.93005L7.48597 11.1721Z" fill="white"/>
<path d="M21.356 9.04393L25.004 6.91593L20.216 4.17993L16.492 6.34593L21.356 9.04393Z" fill="white"/>
<path d="M12.084 8.51197L15.808 6.30797L11.932 4.14197L8.09399 6.30797L12.084 8.51197Z" fill="white"/>
<path d="M25.27 6.72604L28.044 5.13004L23.256 2.39404L20.444 4.02804L25.27 6.72604Z" fill="white"/>
<path d="M28.5 5.35803L25.688 6.99203L30.552 9.72803L33.326 8.09403L28.5 5.35803Z" fill="white"/>
<path d="M16.872 11.666L12.008 8.96802L7.828 11.4L12.654 14.136L16.872 11.666Z" fill="white"/>
<path d="M12.426 8.73997L17.29 11.438L21.014 9.27197L16.15 6.57397L12.426 8.73997Z" fill="white"/>
<path d="M20.14 3.762L22.914 2.128L19.152 0L16.34 1.596L20.14 3.762Z" fill="white"/>
<path d="M7.182 11.4L3.154 9.12L0 10.906L4.028 13.224L7.182 11.4Z" fill="white"/>
<path d="M33.592 8.32202L30.818 9.95602L35.226 12.426L38 10.83L33.592 8.32202Z" fill="white"/>
<path d="M26.6 10.906L27.588 11.476L30.324 9.91804L25.46 7.14404L21.774 9.31004L25.65 11.476L26.6 10.906Z" fill="white"/>
<path d="M17.632 17.29L12.768 14.554L9.57599 16.416L14.44 19.19L17.632 17.29Z" fill="white"/>
<path d="M17.328 11.894L13.072 14.364L17.974 17.1L22.23 14.592L17.328 11.894Z" fill="white"/>
<path d="M9.15799 16.188L12.312 14.326L7.486 11.59L4.37 13.414L9.15799 16.188Z" fill="white"/>
<path d="M30.59 10.108L27.93 11.666L31.958 13.946L30.97 14.516L31.35 14.744L34.998 12.616L30.59 10.108Z" fill="white"/>
<path d="M22.002 13.642L25.308 11.666L21.432 9.5L17.708 11.666L22.648 14.402L23.028 14.174L22.002 13.642Z" fill="white"/>
<path d="M26.638 11.438L22.914 13.604L27.398 16.074L31.046 13.908L26.638 11.438Z" fill="white"/>
</svg>
