<svg width="25" height="26" viewBox="0 0 25 26" fill="none" xmlns="http://www.w3.org/2000/svg">
<path d="M11.8937 8.9243C11.8937 8.9243 8.73942 0.207074 15.5067 0.0063486C22.2741 -0.194377 24.0806 4.42231 23.7078 5.68401C23.2203 7.31849 22.2167 6.20016 20.5536 6.91704C19.2919 7.49054 17.7721 9.18237 17.2846 10.4154C17.2846 10.4154 15.8795 7.71994 11.8937 8.9243Z" fill="white"/>
<path d="M10.7467 16.2078C10.7467 16.2078 4.06536 22.631 1.1405 16.5519C-1.78435 10.4727 1.68533 6.91703 3.00438 6.74498C4.69621 6.51558 4.06536 7.89199 5.41309 9.12501C6.44539 10.0713 8.59602 10.7595 9.91508 10.7021C9.91508 10.6735 8.0512 13.0248 10.7467 16.2078Z" fill="white"/>
<path d="M18.1449 13.5123C18.1449 13.5123 27.2349 15.2902 23.9373 21.1972C20.6397 27.1043 15.7362 26.3014 14.8473 25.2978C13.7003 24.0361 15.1627 23.7493 15.4208 21.9715C15.5929 20.5951 14.9333 18.4158 14.1304 17.3835C14.1017 17.3835 17.1126 17.5555 18.1449 13.5123Z" fill="white"/>
<path d="M13.6426 15.4049C15.0046 15.4049 16.1087 14.3008 16.1087 12.9388C16.1087 11.5769 15.0046 10.4728 13.6426 10.4728C12.2807 10.4728 11.1766 11.5769 11.1766 12.9388C11.1766 14.3008 12.2807 15.4049 13.6426 15.4049Z" fill="white"/>
</svg>
