<svg width="24" height="32" viewBox="0 0 24 32" fill="none" xmlns="http://www.w3.org/2000/svg">
<path d="M19.915 12.0621H3.74218V20.1018H19.915V12.0621Z" stroke="white" stroke-width="0.7" stroke-miterlimit="10"/>
<path d="M7.04527 1V12.0623" stroke="white" stroke-width="0.7" stroke-miterlimit="10" stroke-linecap="round" stroke-linejoin="round"/>
<path d="M9.47582 1V12.0623" stroke="white" stroke-width="0.7" stroke-miterlimit="10" stroke-linecap="round" stroke-linejoin="round"/>
<path d="M11.8131 1V12.0623" stroke="white" stroke-width="0.7" stroke-miterlimit="10" stroke-linecap="round" stroke-linejoin="round"/>
<path d="M14.119 1V12.0623" stroke="white" stroke-width="0.7" stroke-miterlimit="10" stroke-linecap="round" stroke-linejoin="round"/>
<path d="M16.4872 1V12.0623" stroke="white" stroke-width="0.7" stroke-miterlimit="10" stroke-linecap="round" stroke-linejoin="round"/>
<path d="M7.10763 20.0708V31.1331" stroke="white" stroke-width="0.7" stroke-miterlimit="10" stroke-linecap="round" stroke-linejoin="round"/>
<path d="M9.50707 20.0708V31.1331" stroke="white" stroke-width="0.7" stroke-miterlimit="10" stroke-linecap="round" stroke-linejoin="round"/>
<path d="M11.8754 20.0708V31.1331" stroke="white" stroke-width="0.7" stroke-miterlimit="10" stroke-linecap="round" stroke-linejoin="round"/>
<path d="M14.1813 20.0708V31.1331" stroke="white" stroke-width="0.7" stroke-miterlimit="10" stroke-linecap="round" stroke-linejoin="round"/>
<path d="M16.5496 20.0708V31.1331" stroke="white" stroke-width="0.7" stroke-miterlimit="10"/>
<path d="M1 4.73938H20.6629C21.9405 4.73938 23 5.76771 23 7.07649C23 8.35411 21.9717 9.4136 20.6629 9.4136H3.61756C2.30878 9.4136 1.24929 10.4731 1.24929 11.7819C1.24929 13.0907 2.30878 14.1501 3.61756 14.1501H3.74221" stroke="white" stroke-width="0.7" stroke-miterlimit="10" stroke-linecap="round" stroke-linejoin="round"/>
<path d="M19.9149 14.119H20.2577C21.473 14.119 22.439 15.085 22.439 16.3003C22.439 17.5156 21.473 18.4816 20.2577 18.4816H19.9149" stroke="white" stroke-width="0.7" stroke-miterlimit="10"/>
<path d="M3.74221 18.5127H3.27479C2.02833 18.5127 1 19.541 1 20.7875C1 22.0339 2.02833 23.0623 3.27479 23.0623H20.4759C21.5666 23.0623 22.4391 23.9348 22.4391 25.0254V26.4277" stroke="white" stroke-width="0.7" stroke-miterlimit="10" stroke-linecap="round" stroke-linejoin="round"/>
<path d="M13.7449 16.8612C13.7449 17.9207 12.8724 18.7932 11.8129 18.7932C10.7534 18.7932 9.88092 17.9207 9.88092 16.8612C9.88092 15.8017 11.8129 13.5581 11.8129 13.5581C11.8129 13.5581 13.7449 15.8017 13.7449 16.8612Z" fill="white"/>
</svg>
