<svg width="37" height="27" viewBox="0 0 37 27" fill="none" xmlns="http://www.w3.org/2000/svg">
<path d="M5.98758 4.93102L5.63537 3.87439L0 8.57053L12.3274 23.246V22.4241L10.8011 20.4283L11.3881 19.8413L11.1533 19.2543L10.3315 19.8413L7.63123 16.6714L9.50969 15.0277L9.27488 14.2059L7.16162 15.967L4.46133 12.7971L7.86604 9.97937L7.63123 9.27495L3.99172 12.21L1.29144 9.04015L5.98758 4.93102Z" fill="white"/>
<path d="M20.3108 1.52636L20.7805 0.469727H13.6188V19.4891L14.3233 17.728V16.4366H14.7929L15.0277 15.7322H14.3233V11.5057H16.5539L16.7887 10.8012H14.3233V6.45731H18.4324L18.6672 5.87029H14.3233V1.52636H20.3108Z" fill="white"/>
<path fill-rule="evenodd" clip-rule="evenodd" d="M36.1602 8.33581L29.116 2.70044L16.032 18.7668C14.4487 20.711 14.7693 23.576 16.7431 25.1221C18.6607 26.6243 21.4271 26.3188 22.9708 24.4346L36.1602 8.33581ZM22.7848 11.6503L28.4842 16.4569L25.8047 19.6342L20.1053 14.8276L22.7848 11.6503ZM31.6247 12.5554L25.9253 7.74879L23.2457 10.9261L28.9452 15.7327L31.6247 12.5554ZM28.9778 3.99184L34.6772 8.79844L31.9977 11.9757L26.2982 7.16911L28.9778 3.99184ZM18.0801 23.7157C18.3395 23.7157 18.5498 23.5054 18.5498 23.2461C18.5498 22.9867 18.3395 22.7765 18.0801 22.7765C17.8208 22.7765 17.6105 22.9867 17.6105 23.2461C17.6105 23.5054 17.8208 23.7157 18.0801 23.7157Z" fill="white"/>
<path fill-rule="evenodd" clip-rule="evenodd" d="M28.4959 2.68755L27.6766 3.69355L21.7308 1.2711L20.1626 5.1202L24.9322 7.06347L24.4809 7.6177L19.9868 5.78672L18.4186 9.63582L21.7365 10.9876L21.1746 11.6776L18.2034 10.467L16.6352 14.3161L18.4303 15.0475L15.4876 18.6609C13.932 20.5711 14.2143 23.3702 16.0967 24.934C14.0746 23.9614 13.1019 21.5771 13.9298 19.4407L21.4638 0L28.4959 2.68755Z" fill="white"/>
<path d="M12.797 1.99591V0.704468L6.10498 3.28735L12.797 21.2501L13.0318 20.5457L12.4448 18.0802L13.0318 17.728V17.0236L12.21 17.3758L10.8011 13.5015L12.797 12.6796V11.7404L10.4489 12.6796L9.04007 8.68791L12.797 7.27907V6.57465L8.68786 7.98349L7.39642 4.22657L12.797 1.99591Z" fill="white"/>
</svg>
