<svg width="143" height="25" viewBox="0 0 143 25" fill="none" xmlns="http://www.w3.org/2000/svg">
<g clip-path="url(#clip0_35_2)">
<path fill-rule="evenodd" clip-rule="evenodd" d="M38.07 20.492L38.0141 7.14844H40.744L40.6155 14.4719L42.1938 7.14844H44.3051L44.4336 14.4067L45.8405 7.14844H48.5481L45.6728 20.492H42.805L42.6429 12.8761L40.9602 20.492H38.07ZM51.6097 20.6688C52.629 20.6688 53.4601 20.4268 54.0955 19.9389C54.7328 19.4492 55.0999 18.7379 55.195 17.805L55.3161 16.7194H52.6402L52.5284 17.8367C52.4706 18.3524 52.234 18.6094 51.8184 18.6094C51.5072 18.6094 51.3507 18.3915 51.3507 17.9577C51.3507 17.8888 51.3563 17.8087 51.3675 17.7249L51.5538 15.9318H55.3869L55.6291 13.742C55.6459 13.5912 55.6534 13.4478 55.6534 13.3081C55.6534 12.5559 55.4335 11.9674 54.9937 11.5448C54.4664 11.042 53.6856 10.7888 52.6477 10.7888C51.6172 10.7888 50.7581 11.0588 50.0742 11.6025C49.3904 12.1443 48.999 12.891 48.9021 13.8463L48.5071 17.6132C48.4903 17.7584 48.4847 17.8981 48.4847 18.0303C48.4847 18.7882 48.7233 19.3989 49.2078 19.8607C49.778 20.3988 50.5792 20.6688 51.6097 20.6688ZM51.6973 14.5985L51.7961 13.7215C51.8594 13.1368 52.0681 12.8445 52.4222 12.8445C52.793 12.8445 52.9775 13.0512 52.9775 13.4627C52.9775 13.5185 52.9756 13.5725 52.97 13.6321L52.8657 14.5967H51.6973V14.5985ZM60.2952 20.492L61.6965 7.14844H65.2892C65.7979 7.14844 66.2433 7.16706 66.6253 7.21175C67.0073 7.25644 67.3949 7.34582 67.7936 7.48919C68.1887 7.63257 68.5055 7.82995 68.7421 8.07947C68.9732 8.32712 69.1484 8.66974 69.2676 9.10918C69.3366 9.37918 69.3757 9.67525 69.3794 10.0048C69.3794 10.219 69.3627 10.4443 69.3291 10.6808C69.1335 12.1928 68.3881 13.0772 67.1023 13.3305C67.8477 13.3994 68.3974 13.7066 68.7515 14.2541C69.031 14.6916 69.1726 15.2521 69.1726 15.9374C69.1726 16.1124 69.1651 16.3005 69.1484 16.4922C68.9061 19.1606 67.3725 20.492 64.5494 20.492H60.2952ZM63.75 18.2538H64.2252C64.8215 18.2538 65.2556 18.1048 65.5333 17.8087C65.8091 17.5127 65.9805 17.0565 66.0532 16.4438C66.0756 16.252 66.0867 16.0733 66.0867 15.9057C66.0812 15.4551 66.001 15.1274 65.8538 14.9244C65.647 14.6395 65.2407 14.4961 64.6277 14.4961H64.1432L63.75 18.2538ZM64.3631 12.4348H64.8215C65.4159 12.4348 65.8333 12.297 66.07 12.0233C66.3066 11.7459 66.4557 11.325 66.5209 10.7627C66.5265 10.6938 66.5284 10.6249 66.5284 10.5616C66.5284 10.2134 66.4315 9.91918 66.2377 9.6827C66.0122 9.40525 65.6749 9.2656 65.224 9.2656H64.6929L64.3631 12.4348ZM71.8615 20.6688C71.2876 20.6688 70.8571 20.4603 70.572 20.0432C70.3466 19.7099 70.2329 19.2909 70.2329 18.7882C70.2329 18.6541 70.2403 18.5126 70.2571 18.3711L71.0304 10.9638H73.9393L73.192 18.129C73.1864 18.1755 73.1846 18.2221 73.1846 18.2631C73.1846 18.5815 73.3187 18.7379 73.5945 18.7379C73.6057 18.7379 73.6187 18.7379 73.6355 18.7379C73.8442 18.7267 74.0753 18.6522 74.3287 18.5126L75.1169 10.9638H78.0239L77.0251 20.4938H74.1163L74.2076 19.6317C73.3951 20.3225 72.6144 20.6688 71.8615 20.6688ZM78.6742 20.492L79.6749 10.9619H82.5819L81.5831 20.492H78.6742ZM79.8333 9.31401L80.0345 7.4203H82.9601L82.7589 9.31401H79.8333ZM83.3067 20.492L84.7062 7.14844H87.6225L86.2212 20.492H83.3067ZM89.9275 20.6688C89.2455 20.6688 88.7368 20.4324 88.4051 19.9631C88.1461 19.5982 88.0175 19.114 88.0175 18.5126C88.0175 18.3375 88.0287 18.1476 88.051 17.9502L88.5188 13.5241C88.6045 12.6862 88.8672 12.0214 89.307 11.5261C89.7468 11.0346 90.3058 10.7869 90.9822 10.7869C91.6605 10.7869 92.2792 11.042 92.8438 11.5503L93.3022 7.14844H96.211L94.8097 20.492H91.9009L91.9829 19.7285C91.2655 20.3542 90.5816 20.6688 89.9275 20.6688ZM91.4481 18.8738C91.6214 18.8738 91.8357 18.8031 92.0947 18.656L92.7208 12.6992C92.5233 12.5912 92.3332 12.5372 92.1487 12.5372C91.9512 12.5372 91.791 12.6117 91.6736 12.757C91.558 12.9003 91.4816 13.0977 91.4481 13.3416L90.9505 18.1253C90.945 18.1662 90.9431 18.2072 90.9431 18.2463C90.9431 18.4009 90.9785 18.5368 91.0475 18.656C91.1313 18.7975 91.2655 18.8682 91.4481 18.8738ZM105.15 20.492L105.094 7.14844H107.824L107.695 14.4719L109.274 7.14844H111.385L111.514 14.4067L112.92 7.14844H115.628L112.753 20.492H109.887L109.725 12.8761L108.042 20.492H105.15ZM118.924 18.7528C119.133 18.7528 119.295 18.682 119.411 18.5349C119.526 18.3897 119.601 18.1588 119.634 17.8422L120.078 13.6079C120.089 13.5111 120.095 13.4236 120.095 13.3416C120.095 13.161 120.065 13.0176 120.007 12.9152C119.921 12.77 119.774 12.6974 119.564 12.6974C119.165 12.6974 118.934 12.999 118.87 13.6061L118.427 17.8404C118.416 17.926 118.41 18.0061 118.41 18.0731C118.41 18.5275 118.58 18.7528 118.924 18.7528ZM118.716 20.6688C119.769 20.6688 120.641 20.4137 121.33 19.8961C122.02 19.3822 122.418 18.6262 122.526 17.6356L122.927 13.8202C122.944 13.6768 122.951 13.5372 122.951 13.4031C122.951 13.0661 122.901 12.757 122.806 12.4776C122.674 12.0903 122.463 11.7775 122.174 11.5317C121.889 11.2878 121.539 11.1035 121.133 10.9768C120.726 10.8502 120.266 10.7869 119.756 10.7869C118.708 10.7869 117.846 11.042 117.163 11.5597C116.481 12.0736 116.088 12.8296 115.988 13.8202L115.583 17.6356C115.57 17.7808 115.561 17.9204 115.561 18.062C115.561 18.4009 115.606 18.7081 115.695 18.98C115.824 19.3673 116.031 19.6838 116.316 19.9259C116.601 20.1698 116.945 20.3579 117.346 20.4845C117.747 20.6055 118.203 20.6688 118.716 20.6688ZM123.715 20.492L124.714 10.9619H127.623L127.453 12.6043C128.147 11.433 128.825 10.8483 129.494 10.8483C129.622 10.8483 129.753 10.8726 129.887 10.9228L129.628 13.377C129.576 13.3659 129.485 13.3603 129.356 13.3603C128.562 13.4161 127.858 13.8239 127.245 14.5929L126.626 20.492H123.715ZM130.098 20.492L131.497 7.14844H134.413L133.012 20.492H130.098ZM136.718 20.6688C136.036 20.6688 135.528 20.4324 135.196 19.9631C134.937 19.5982 134.808 19.114 134.808 18.5126C134.808 18.3375 134.82 18.1476 134.842 17.9502L135.31 13.5241C135.395 12.6862 135.658 12.0214 136.098 11.5261C136.538 11.0346 137.097 10.7869 137.771 10.7869C138.45 10.7869 139.068 11.042 139.633 11.5503L140.091 7.14844H143L141.599 20.492H138.69L138.772 19.7285C138.056 20.3542 137.372 20.6688 136.718 20.6688ZM138.239 18.8738C138.412 18.8738 138.627 18.8031 138.886 18.656L139.512 12.6992C139.314 12.5912 139.124 12.5372 138.94 12.5372C138.742 12.5372 138.582 12.6117 138.464 12.757C138.349 12.9003 138.272 13.0977 138.239 13.3416L137.741 18.1253C137.736 18.1662 137.734 18.2072 137.734 18.2463C137.734 18.4009 137.769 18.5368 137.838 18.656C137.922 18.7975 138.056 18.8682 138.239 18.8738Z" fill="black"/>
<path fill-rule="evenodd" clip-rule="evenodd" d="M9.09912 4.76501C10.0495 5.09273 10.4277 5.35342 10.875 5.6681C11.6483 6.21183 12.2092 6.80024 13.1614 7.71265C13.6757 8.21168 16.0404 10.8763 16.3386 11.4461L10.1874 11.3418C8.79352 11.3232 7.96988 11.2785 7.72018 11.2766C7.67546 11.2766 7.69223 11.3027 7.69036 11.3772C7.68664 11.4721 7.70155 11.6137 7.70341 11.9749L15.8392 12.135L9.68051 15.4402C10.5097 17.103 9.61716 19.2574 10.0979 20.654C10.4911 21.7973 22.1637 25.1843 22.4301 24.9926C22.7954 24.7281 22.7991 24.4283 22.8121 23.8511C22.827 23.2292 22.7786 22.827 22.8587 22.1808C27.8714 22.1808 27.1651 22.3373 27.1651 15.8256C31.6951 15.8256 27.6552 14.349 27.18 9.42388C26.0284 -2.5622 11.9353 -1.94585 9.09912 4.76501Z" fill="#6DB744"/>
<path fill-rule="evenodd" clip-rule="evenodd" d="M7.70244 11.0569C7.86083 7.98265 7.79002 8.77403 7.93164 7.81693C7.99686 7.36631 8.33041 6.18763 9.06833 4.80226L3.41467 3.23999L7.70244 11.0569Z" fill="#6DB744"/>
<path fill-rule="evenodd" clip-rule="evenodd" d="M3.28522 19.0991L9.52027 15.5537L7.92144 12.3827C7.90654 12.3585 7.87486 12.3045 7.84504 12.2691L3.28522 19.0991Z" fill="#6DB744"/>
<path fill-rule="evenodd" clip-rule="evenodd" d="M-2.30373e-05 6.27512C0.00370383 6.27326 0.0242017 6.27698 0.680131 6.28071C1.33606 6.2863 2.62742 6.29188 3.30757 6.29561C3.98586 6.29933 4.05295 6.29747 4.08835 6.29933C4.12189 6.29933 4.12376 6.30305 4.12562 6.30492C4.12748 6.30678 4.12935 6.3105 4.57285 7.14657C5.01634 7.98263 5.90148 9.65104 6.36361 10.5188C6.8276 11.3865 6.8686 11.4516 6.89096 11.487C6.91332 11.5224 6.91705 11.528 5.87352 10.7571C4.82814 9.98434 2.73923 8.43511 1.6398 7.61208C0.540373 6.78905 0.432294 6.69409 0.327942 6.59353C0.223589 6.49485 0.122964 6.39243 0.0670606 6.33657C0.00929414 6.28443 -0.00374991 6.27699 -2.30373e-05 6.27512Z" fill="#6DB742"/>
<path fill-rule="evenodd" clip-rule="evenodd" d="M19.7971 6.42969C19.7971 6.42969 19.7971 6.42969 19.5922 6.84306C19.3872 7.25458 18.9791 8.07761 18.7611 8.51333C18.5449 8.94905 18.5207 8.9956 18.5058 9.02354C18.4909 9.05147 18.4834 9.05892 18.4815 9.0645C18.4778 9.06823 18.4797 9.07009 19.1673 9.05892C19.8568 9.04774 21.232 9.02354 21.9401 9.01236C22.6463 9.00119 22.6836 9.00119 22.7022 9.00119C22.7209 9.00119 22.7227 9.00119 22.7227 9.00119C22.7227 9.00119 22.7227 8.99933 22.3556 8.69395C21.9885 8.38671 21.2562 7.77409 20.822 7.3961C20.3897 7.01624 20.2555 6.871 20.14 6.75555C20.0245 6.6401 19.9276 6.55445 19.8735 6.50417C19.8195 6.45576 19.8083 6.44272 19.8046 6.43714C19.7971 6.43155 19.7971 6.42969 19.7971 6.42969Z" fill="white"/>
<path fill-rule="evenodd" clip-rule="evenodd" d="M19.1151 6.42224L17.9859 8.72933L16.8548 11.0364L15.5019 9.39595L14.149 7.75361L16.6311 7.087L19.1151 6.42224Z" fill="white"/>
<path fill-rule="evenodd" clip-rule="evenodd" d="M99.8279 16.7176V17.5462H99.6118V15.6394H99.8279V16.4699H101.975V16.7194H99.8279V16.7176ZM99.6118 13.2672H101.975V13.513H100.884V14.9896H101.975V15.2391H99.6118V14.9896H100.665V13.513H99.6118V13.2672ZM101.758 10.8297H101.975V12.4981H99.6118V10.88H99.8279V12.2486H100.668V11.0271H100.881V12.2486H101.758V10.8297Z" fill="#6DB742"/>
</g>
<defs>
<clipPath id="clip0_35_2">
<rect width="143" height="25" fill="white"/>
</clipPath>
</defs>
</svg>
