<svg width="227" height="39" viewBox="0 0 227 39" fill="none" xmlns="http://www.w3.org/2000/svg">
<g clip-path="url(#clip0_35_13)">
<path fill-rule="evenodd" clip-rule="evenodd" d="M60.4328 31.9674L60.344 11.1516H64.6776L64.4734 22.5762L66.9789 11.1516H70.3304L70.5345 22.4745L72.7678 11.1516H77.0658L72.5016 31.9674H67.9491L67.6918 20.0868L65.0207 31.9674H60.4328ZM81.9259 32.2434C83.5439 32.2434 84.8632 31.8658 85.8719 31.1047C86.8836 30.3407 87.4663 29.2311 87.6172 27.7758L87.8094 26.0823H83.5617L83.3842 27.8252C83.2925 28.6298 82.9168 29.0307 82.2572 29.0307C81.7632 29.0307 81.5147 28.6908 81.5147 28.014C81.5147 27.9065 81.5236 27.7816 81.5413 27.6509L81.8371 24.8535H87.9218L88.3064 21.4375C88.333 21.2022 88.3448 20.9785 88.3448 20.7607C88.3448 19.5871 87.9958 18.6692 87.2977 18.0098C86.4606 17.2255 85.2211 16.8305 83.5735 16.8305C81.9377 16.8305 80.5741 17.2517 79.4885 18.0999C78.4029 18.9452 77.7817 20.11 77.6278 21.6002L77.0007 27.4766C76.9741 27.7032 76.9652 27.921 76.9652 28.1273C76.9652 29.3095 77.3439 30.2623 78.113 30.9827C79.0181 31.8222 80.2901 32.2434 81.9259 32.2434ZM82.0649 22.7737L82.2217 21.4055C82.3223 20.4934 82.6536 20.0374 83.2156 20.0374C83.8042 20.0374 84.0971 20.3598 84.0971 21.0018C84.0971 21.0889 84.0941 21.1731 84.0853 21.2661L83.9196 22.7708H82.0649V22.7737ZM95.7133 31.9674L97.9377 11.1516H103.641C104.448 11.1516 105.155 11.1806 105.762 11.2503C106.368 11.32 106.983 11.4595 107.616 11.6831C108.244 11.9068 108.746 12.2147 109.122 12.604C109.489 12.9903 109.767 13.5248 109.956 14.2103C110.066 14.6315 110.128 15.0934 110.134 15.6075C110.134 15.9416 110.107 16.2931 110.054 16.662C109.743 19.0207 108.56 20.4005 106.519 20.7955C107.702 20.903 108.575 21.3823 109.137 22.2363C109.581 22.9189 109.805 23.7933 109.805 24.8623C109.805 25.1353 109.794 25.4287 109.767 25.7279C109.382 29.8905 106.948 31.9674 102.467 31.9674H95.7133ZM101.198 28.4758H101.952C102.898 28.4758 103.588 28.2435 104.028 27.7816C104.466 27.3197 104.738 26.6081 104.854 25.6524C104.889 25.3532 104.907 25.0743 104.907 24.8129C104.898 24.1099 104.771 23.5987 104.537 23.282C104.209 22.8376 103.564 22.6139 102.591 22.6139H101.822L101.198 28.4758ZM102.171 19.3983H102.898C103.842 19.3983 104.505 19.1834 104.88 18.7563C105.256 18.3235 105.493 17.667 105.596 16.7898C105.605 16.6823 105.608 16.5748 105.608 16.4761C105.608 15.9329 105.454 15.4739 105.146 15.105C104.789 14.6722 104.253 14.4543 103.537 14.4543H102.694L102.171 19.3983ZM114.074 32.2434C113.163 32.2434 112.479 31.918 112.027 31.2674C111.669 30.7474 111.489 30.0938 111.489 29.3095C111.489 29.1004 111.5 28.8796 111.527 28.6588L112.755 17.1035H117.372L116.186 28.2812C116.177 28.3538 116.174 28.4265 116.174 28.4904C116.174 28.9871 116.387 29.2311 116.825 29.2311C116.843 29.2311 116.863 29.2311 116.89 29.2311C117.221 29.2137 117.588 29.0975 117.99 28.8796L119.242 17.1035H123.856L122.271 31.9703H117.653L117.798 30.6254C116.508 31.7031 115.269 32.2434 114.074 32.2434ZM124.888 31.9674L126.477 17.1006H131.091L129.506 31.9674H124.888ZM126.728 14.5298L127.048 11.5757H131.692L131.372 14.5298H126.728ZM132.242 31.9674L134.464 11.1516H139.093L136.869 31.9674H132.242ZM142.752 32.2434C141.669 32.2434 140.862 31.8745 140.335 31.1425C139.924 30.5731 139.72 29.8179 139.72 28.8796C139.72 28.6066 139.738 28.3103 139.773 28.0024L140.516 21.0976C140.652 19.7905 141.069 18.7534 141.767 17.9808C142.465 17.2139 143.353 16.8276 144.426 16.8276C145.503 16.8276 146.485 17.2255 147.381 18.0185L148.109 11.1516H152.727L150.502 31.9674H145.885L146.015 30.7765C144.876 31.7525 143.79 32.2434 142.752 32.2434ZM145.166 29.4431C145.441 29.4431 145.781 29.3328 146.192 29.1033L147.186 19.8108C146.873 19.6423 146.571 19.5581 146.278 19.5581C145.964 19.5581 145.71 19.6743 145.524 19.9008C145.34 20.1245 145.219 20.4324 145.166 20.813L144.376 28.2754C144.367 28.3393 144.364 28.4032 144.364 28.4642C144.364 28.7053 144.42 28.9174 144.53 29.1033C144.663 29.3241 144.876 29.4344 145.166 29.4431ZM166.916 31.9674L166.828 11.1516H171.161L170.957 22.5762L173.462 11.1516H176.814L177.018 22.4745L179.251 11.1516H183.549L178.985 31.9674H174.436L174.178 20.0868L171.507 31.9674H166.916ZM188.782 29.2543C189.113 29.2543 189.371 29.144 189.554 28.9145C189.738 28.6879 189.856 28.3277 189.909 27.8339L190.613 21.2283C190.631 21.0773 190.64 20.9408 190.64 20.813C190.64 20.5312 190.592 20.3075 190.501 20.1478C190.365 19.9212 190.131 19.8079 189.797 19.8079C189.164 19.8079 188.797 20.2785 188.696 21.2254L187.992 27.831C187.975 27.9646 187.966 28.0895 187.966 28.1941C187.966 28.9029 188.235 29.2543 188.782 29.2543ZM188.451 32.2434C190.122 32.2434 191.506 31.8454 192.601 31.0379C193.695 30.2362 194.328 29.0568 194.5 27.5114L195.136 21.5595C195.163 21.3358 195.174 21.118 195.174 20.9088C195.174 20.383 195.095 19.9008 194.944 19.4651C194.734 18.8609 194.399 18.3729 193.941 17.9895C193.488 17.6089 192.932 17.3214 192.287 17.1238C191.643 16.9263 190.912 16.8276 190.101 16.8276C188.439 16.8276 187.069 17.2255 185.987 18.033C184.904 18.8348 184.28 20.0141 184.12 21.5595L183.478 27.5114C183.458 27.738 183.443 27.9559 183.443 28.1766C183.443 28.7053 183.514 29.1846 183.656 29.6087C183.86 30.2129 184.188 30.7067 184.641 31.0844C185.093 31.4649 185.641 31.7583 186.277 31.9558C186.913 32.1446 187.637 32.2434 188.451 32.2434ZM196.387 31.9674L197.973 17.1006H202.59L202.321 19.6626C203.421 17.8355 204.498 16.9234 205.56 16.9234C205.764 16.9234 205.971 16.9612 206.184 17.0396L205.773 20.8681C205.69 20.8507 205.545 20.842 205.341 20.842C204.081 20.9291 202.963 21.5653 201.99 22.765L201.008 31.9674H196.387ZM206.518 31.9674L208.74 11.1516H213.369L211.145 31.9674H206.518ZM217.028 32.2434C215.946 32.2434 215.138 31.8745 214.612 31.1425C214.201 30.5731 213.996 29.8179 213.996 28.8796C213.996 28.6066 214.014 28.3103 214.05 28.0024L214.792 21.0976C214.928 19.7905 215.345 18.7534 216.043 17.9808C216.741 17.2139 217.629 16.8276 218.7 16.8276C219.776 16.8276 220.758 17.2255 221.655 18.0185L222.382 11.1516H227L224.776 31.9674H220.158L220.288 30.7765C219.152 31.7525 218.067 32.2434 217.028 32.2434ZM219.442 29.4431C219.717 29.4431 220.057 29.3328 220.469 29.1033L221.463 19.8108C221.149 19.6423 220.847 19.5581 220.554 19.5581C220.241 19.5581 219.986 19.6743 219.8 19.9008C219.617 20.1245 219.495 20.4324 219.442 20.813L218.652 28.2754C218.643 28.3393 218.641 28.4032 218.641 28.4642C218.641 28.7053 218.697 28.9174 218.806 29.1033C218.939 29.3241 219.152 29.4344 219.442 29.4431Z" fill="white"/>
<path fill-rule="evenodd" clip-rule="evenodd" d="M14.4441 7.43345C15.9527 7.9447 16.5532 8.35137 17.2631 8.84228C18.4907 9.69049 19.381 10.6084 20.8926 12.0318C21.709 12.8103 25.4628 16.967 25.9361 17.8559L16.1716 17.6932C13.959 17.6642 12.6515 17.5945 12.2551 17.5916C12.1841 17.5916 12.2108 17.6322 12.2078 17.7484C12.2019 17.8966 12.2256 18.1173 12.2285 18.6809L25.1433 18.9307L15.367 24.0867C16.6833 26.6807 15.2664 30.0416 16.0296 32.2202C16.6537 34.0038 35.1829 39.2876 35.6059 38.9884C36.1857 38.5759 36.1916 38.1083 36.2123 37.2078C36.236 36.2376 36.159 35.6101 36.2862 34.6022C44.2434 34.6022 43.1223 34.8462 43.1223 24.688C50.3133 24.688 43.9002 22.3845 43.1459 14.7013C41.3179 -3.99698 18.9462 -3.03549 14.4441 7.43345Z" fill="#6DB744"/>
<path fill-rule="evenodd" clip-rule="evenodd" d="M12.227 17.2488C12.4784 12.4529 12.366 13.6875 12.5909 12.1944C12.6944 11.4914 13.2239 9.6527 14.3953 7.49152L5.42056 5.05438L12.227 17.2488Z" fill="#6DB744"/>
<path fill-rule="evenodd" clip-rule="evenodd" d="M5.21501 29.7947L15.1126 24.2639L12.5746 19.317C12.551 19.2793 12.5007 19.195 12.4533 19.1398L5.21501 29.7947Z" fill="#6DB744"/>
<path fill-rule="evenodd" clip-rule="evenodd" d="M1.52393e-06 9.78929C0.0059176 9.78638 0.0384561 9.79219 1.07969 9.798C2.12092 9.80671 4.17084 9.81543 5.25052 9.82124C6.32725 9.82705 6.43374 9.82414 6.48994 9.82705C6.54319 9.82705 6.54614 9.83286 6.5491 9.83576C6.55206 9.83867 6.55502 9.84448 7.25903 11.1487C7.96305 12.453 9.36811 15.0557 10.1017 16.4094C10.8383 17.763 10.9033 17.8647 10.9388 17.9199C10.9743 17.975 10.9802 17.9838 9.32374 16.7812C7.66428 15.5757 4.34832 13.1589 2.60308 11.8749C0.857833 10.591 0.686267 10.4429 0.520617 10.286C0.354966 10.1321 0.195232 9.97229 0.106491 9.88514C0.0147917 9.80381 -0.00591456 9.79219 1.52393e-06 9.78929Z" fill="#6DB742"/>
<path fill-rule="evenodd" clip-rule="evenodd" d="M31.4262 10.0304C31.4262 10.0304 31.4262 10.0304 31.1008 10.6753C30.7754 11.3172 30.1276 12.6012 29.7815 13.2809C29.4384 13.9606 29.3999 14.0332 29.3763 14.0768C29.3526 14.1204 29.3408 14.132 29.3378 14.1407C29.3319 14.1465 29.3349 14.1494 30.4264 14.132C31.5208 14.1146 33.7039 14.0768 34.8279 14.0594C35.949 14.0419 36.0082 14.0419 36.0378 14.0419C36.0674 14.0419 36.0703 14.0419 36.0703 14.0419C36.0703 14.0419 36.0703 14.039 35.4876 13.5626C34.9048 13.0834 33.7423 12.1277 33.0531 11.538C32.3668 10.9454 32.1539 10.7188 31.9705 10.5387C31.7871 10.3586 31.6333 10.225 31.5475 10.1466C31.4617 10.0711 31.4439 10.0507 31.438 10.042C31.4262 10.0333 31.4262 10.0304 31.4262 10.0304Z" fill="white"/>
<path fill-rule="evenodd" clip-rule="evenodd" d="M30.3436 10.0187L28.551 13.6178L26.7555 17.2169L24.6079 14.6577L22.4604 12.0957L26.4005 11.0558L30.3436 10.0187Z" fill="white"/>
<path fill-rule="evenodd" clip-rule="evenodd" d="M158.468 26.0794V27.3721H158.125V24.3975H158.468V25.6931H161.876V26.0823H158.468V26.0794ZM158.125 20.6968H161.876V21.0802H160.145V23.3838H161.876V23.773H158.125V23.3838H159.796V21.0802H158.125V20.6968ZM161.533 16.8944H161.876V19.4971H158.125V16.9728H158.468V19.1079H159.802V17.2023H160.139V19.1079H161.533V16.8944Z" fill="#6DB742"/>
</g>
<defs>
<clipPath id="clip0_35_13">
<rect width="227" height="39" fill="white"/>
</clipPath>
</defs>
</svg>
